 http://www.imdb.com/title/tt0111255/

Source: The.Specialist.1994.720p.BluRay.x264-SHORTBREHD Thanks!

Subs: Arabic, Bulgarian, Danish, Dutch, English, Finnish, Greek, Hebrew, Romanian, Slovenian, Spanish and Vietnamese.

Sample and Screens included.

General
Complete name                            : The Specialist-720p MP4 AAC x264 BRRip 1994-CC.mp4
Format                                   : MPEG-4
Format profile                           : Base Media
Codec ID                                 : isom
File size                                : 2.44 GiB
Duration                                 : 1h 49mn
Overall bit rate mode                    : Variable
Overall bit rate                         : 3 178 Kbps
Encoded date                             : UTC 2012-09-11 17:17:48

Video
ID                                       : 1
Format                                   : AVC
Format/Info                              : Advanced Video Codec
Format profile                           : High@L3.1
Format settings, CABAC                   : Yes
Format settings, ReFrames                : 5 frames
Codec ID                                 : avc1
Codec ID/Info                            : Advanced Video Coding
Duration                                 : 1h 49mn
Bit rate                                 : 2 870 Kbps
Maximum bit rate                         : 25.3 Mbps
Width                                    : 1 280 pixels
Height                                   : 720 pixels
Display aspect ratio                     : 16:9
Frame rate mode                          : Variable
Frame rate                               : 23.976 fps
Minimum frame rate                       : 23.256 fps
Maximum frame rate                       : 25.000 fps
Color space                              : YUV
Chroma subsampling                       : 4:2:0
Bit depth                                : 8 bits
Scan type                                : Progressive
Bits/(Pixel*Frame)                       : 0.130
Stream size                              : 2.19 GiB (90%)
Writing library                          : x264 core 120

Audio
ID                                       : 2
Format                                   : AAC
Format/Info                              : Advanced Audio Codec
Format profile                           : LC
Codec ID                                 : 40
Duration                                 : 1h 49mn
Bit rate mode                            : Variable
Bit rate                                 : 320 Kbps
Maximum bit rate                         : 451 Kbps
Channel(s)                               : 6 channels
Channel positions                        : Front: L C R, Side: L R, LFE
Sampling rate                            : 48.0 KHz
Compression mode                         : Lossy
Delay relative to video                  : 83ms
Stream size                              : 252 MiB (10%)
Language                                 : English

Enjoy..

Requested by sv8pro.

Coming up soon: Blood Simple, Cradle 2 The Grave, Batman Begins and more.